<?xml version="1.0" encoding="utf-8"?>
<!-- Generator: Adobe Illustrator 16.0.0, SVG Export Plug-In . SVG Version: 6.00 Build 0)  -->
<!DOCTYPE svg PUBLIC "-//W3C//DTD SVG 1.1//EN" "http://www.w3.org/Graphics/SVG/1.1/DTD/svg11.dtd">
<svg version="1.1" id="Layer_1" xmlns="http://www.w3.org/2000/svg" xmlns:xlink="http://www.w3.org/1999/xlink" x="0px" y="0px"
	 width="300px" height="300px" viewBox="470 50 300 300" enable-background="new 470 50 300 300" xml:space="preserve">
<path fill="#FF9C4A" d="M720.141,237.195c-3.865,0-11.041,0.943-11.159,0.312c-19.368-1.023-34.77-16.968-34.858-36.573
	c-3.461-0.824-7.06-1.307-10.775-1.307c-22.101,0-40.558,15.444-45.264,36.118c-0.762-0.702-1.512-1.426-2.236-2.188
	c-17.578-18.566-16.78-47.866,1.788-65.445c13.893-13.154,33.792-16.013,50.299-8.84c-1.351-2.756-2.897-5.437-4.54-8.076
	c-6.763-2.413-14.171-3.322-21.774-2.294c-10.983,1.481-20.532,6.701-27.579,14.182c7.036-11.551,19.017-19.956,33.466-21.906
	c2.852-0.385,5.673-0.464,8.447-0.334c-1.28-1.538-2.584-3.065-3.981-4.539c-35.156-37.13-93.759-38.731-130.891-3.576
	c-37.133,35.159-38.733,93.761-3.576,130.891c30.196,31.893,77.67,37.546,113.998,16.243c8.318,7.848,19.503,12.689,31.839,12.689
	c12.854,0,24.488-5.223,32.898-13.659c4.813,8.204,13.699,13.73,23.897,13.73c15.31,0,27.712-12.407,27.712-27.712
	C747.855,249.603,735.448,237.195,720.141,237.195z M734.858,259.622c-0.394-2.383-7.052-9.033-9.435-9.434
	c0.443-0.072,0.895-0.121,1.354-0.121c4.529,0,8.2,3.673,8.2,8.199C734.979,258.732,734.93,259.184,734.858,259.622z"/>
</svg>
