<?xml version="1.0" encoding="utf-8"?>
<!-- Generator: Adobe Illustrator 16.0.0, SVG Export Plug-In . SVG Version: 6.00 Build 0)  -->
<!DOCTYPE svg PUBLIC "-//W3C//DTD SVG 1.1//EN" "http://www.w3.org/Graphics/SVG/1.1/DTD/svg11.dtd">
<svg version="1.1" id="Layer_1" xmlns="http://www.w3.org/2000/svg" xmlns:xlink="http://www.w3.org/1999/xlink" x="0px" y="0px"
	 width="24px" height="24px" viewBox="1248 138 24 24" enable-background="new 1248 138 24 24" xml:space="preserve">
<path fill="#FF9C4A" d="M1266.213,152.116c-0.221,0-0.628,0.054-0.635,0.018c-1.103-0.058-1.979-0.965-1.983-2.081
	c-0.197-0.047-0.401-0.074-0.613-0.074c-1.257,0-2.308,0.879-2.575,2.055c-0.043-0.04-0.086-0.081-0.127-0.125
	c-1-1.056-0.955-2.723,0.102-3.723c0.791-0.748,1.923-0.911,2.861-0.503c-0.076-0.157-0.164-0.309-0.258-0.459
	c-0.385-0.137-0.807-0.189-1.238-0.13c-0.625,0.084-1.168,0.381-1.569,0.807c0.4-0.657,1.082-1.135,1.903-1.246
	c0.162-0.022,0.323-0.026,0.481-0.019c-0.073-0.087-0.147-0.174-0.228-0.258c-2-2.112-5.333-2.203-7.445-0.203
	c-2.113,2-2.204,5.334-0.204,7.446c1.718,1.814,4.419,2.136,6.485,0.924c0.474,0.447,1.109,0.722,1.812,0.722
	c0.731,0,1.394-0.297,1.871-0.777c0.274,0.467,0.78,0.781,1.36,0.781c0.871,0,1.576-0.706,1.576-1.577
	S1267.084,152.116,1266.213,152.116z M1267.05,153.392c-0.022-0.136-0.401-0.514-0.536-0.537c0.024-0.004,0.051-0.007,0.076-0.007
	c0.258,0,0.467,0.209,0.467,0.466C1267.057,153.341,1267.054,153.367,1267.05,153.392z"/>
</svg>
