<?xml version="1.0" encoding="utf-8"?>
<!-- Generator: Adobe Illustrator 16.0.0, SVG Export Plug-In . SVG Version: 6.00 Build 0)  -->
<!DOCTYPE svg PUBLIC "-//W3C//DTD SVG 1.1//EN" "http://www.w3.org/Graphics/SVG/1.1/DTD/svg11.dtd">
<svg version="1.1" id="Layer_1" xmlns="http://www.w3.org/2000/svg" xmlns:xlink="http://www.w3.org/1999/xlink" x="0px" y="0px"
	 width="150px" height="150px" viewBox="865 75 150 150" enable-background="new 865 75 150 150" xml:space="preserve">
<path fill="#FF9C4A" d="M985.942,167.244c-1.792,0-5.118,0.438-5.174,0.145c-8.979-0.474-16.119-7.867-16.16-16.956
	c-1.604-0.382-3.273-0.606-4.997-0.606c-10.246,0-18.803,7.16-20.983,16.745c-0.354-0.326-0.702-0.661-1.037-1.015
	c-8.149-8.608-7.78-22.191,0.829-30.342c6.44-6.098,15.667-7.424,23.319-4.098c-0.627-1.278-1.344-2.521-2.104-3.745
	c-3.136-1.118-6.57-1.54-10.095-1.063c-5.093,0.687-9.52,3.107-12.786,6.575c3.262-5.355,8.815-9.252,15.515-10.156
	c1.321-0.178,2.63-0.215,3.917-0.155c-0.595-0.713-1.199-1.421-1.848-2.105c-16.299-17.214-43.467-17.956-60.683-1.658
	c-17.215,16.3-17.957,43.469-1.657,60.683c13.999,14.786,36.009,17.406,52.851,7.531c3.857,3.638,9.042,5.882,14.762,5.882
	c5.96,0,11.353-2.421,15.251-6.333c2.232,3.804,6.353,6.366,11.079,6.366c7.1,0,12.849-5.752,12.849-12.848
	C998.792,172.997,993.04,167.244,985.942,167.244z M992.766,177.642c-0.182-1.105-3.27-4.188-4.374-4.374
	c0.205-0.033,0.415-0.056,0.629-0.056c2.1,0,3.801,1.703,3.801,3.801C992.821,177.229,992.799,177.438,992.766,177.642z"/>
</svg>
